# xmcd
#
# Track frame offsets:
#	150
#	13172
#	35762
#	55770
#	73015
#	83582
#	107273
#	121642
#	146637
#	166811
#	199997
#	232483
#	259933
#	270122
#	286125
#	302690
#
# Disc length: 4218 seconds
#
# Revision: 1
# Processed by: cddbd v1.5.2PL0 Copyright (c) Steve Scherf et al.
# Submitted via: audiograbber 1.83.01
#
DISCID=da107810
DTITLE=Kevin Coyne - On Air
DYEAR=2008
DGENRE=Blues
TTITLE0=Going Down Slow
TTITLE1=Eastbourne Ladies
TTITLE2=Sunday Morning Sunrise
TTITLE3=Strange Locomotion
TTITLE4=Nobody's Fault But Mine
TTITLE5=Shangri-La
TTITLE6=Poor Swine
TTITLE7=Mummy
TTITLE8=My Mother's Eyes
TTITLE9=Saviour
TTITLE10=House On The Hill
TTITLE11=One Fine Day
TTITLE12=Ad Lib
TTITLE13=Turpentine
TTITLE14=Knockin' On Heavens Door
TTITLE15=Reelin' and Rocking
EXTD=Kevin Coyne - voc, git\nZoot Money -  p, voc \nAndy Summers - git, voc\nSt
EXTD=eve Thompson /bs\nPeter Woolf - dr\n\nRecorded at the Postaula, Bremen, Ge
EXTD=rmany, 1975
EXTT0=
EXTT1=
EXTT2=
EXTT3=
EXTT4=
EXTT5=
EXTT6=
EXTT7=
EXTT8=
EXTT9=
EXTT10=
EXTT11=
EXTT12=
EXTT13=
EXTT14=
EXTT15=
PLAYORDER=
